<?xml version="1.0" encoding="iso-8859-1"?>
<!-- Generator: Adobe Illustrator 19.0.0, SVG Export Plug-In . SVG Version: 6.00 Build 0)  -->
<svg version="1.1" id="Layer_1" xmlns="http://www.w3.org/2000/svg" xmlns:xlink="http://www.w3.org/1999/xlink" x="0px" y="0px"
	 viewBox="0 0 155.883 155.883" style="enable-background:new 0 0 155.883 155.883;" xml:space="preserve">
<g>
	<g>
		<circle style="fill:#FFD94C;" cx="89.431" cy="39.5" r="19.5"/>
	</g>
	<g>
		<circle style="fill:#FFECA5;" cx="103.431" cy="49.5" r="19.5"/>
	</g>
	<g>
		<polygon style="fill:#ABD9D5;" points="98.17,155.883 41.422,155.883 32.952,47.883 106.64,47.883 		"/>
	</g>
	<g>
		<polygon style="fill:#CDE8E6;" points="67.625,155.883 41.422,155.883 32.952,47.883 67.625,47.883 		"/>
	</g>
	<g>
		<polygon style="fill:#DDF0EE;" points="92.242,141.883 47.351,141.883 38.881,47.883 100.711,47.883 		"/>
	</g>
	<g>
		<polygon style="fill:#FFD94C;" points="40.788,68.607 47.351,141.449 92.242,141.449 98.804,68.607 		"/>
	</g>
	<g>
		<polygon style="fill:#FFB000;" points="70.219,68.607 40.788,68.607 47.351,141.449 70.219,141.449 		"/>
	</g>
	<path style="fill:#FFFFFF;" d="M87.659,127.346c-0.215,2.33-2.277,4.043-4.606,3.828l0,0c-2.329-0.215-4.042-2.277-3.827-4.605
		l4.047-43.857c0.215-2.33,2.278-4.045,4.606-3.828l0,0c2.329,0.215,4.043,2.275,3.827,4.605L87.659,127.346z"/>
	<g>
		<g>
			<polygon style="fill:#F62D8D;" points="41.177,0 46.165,47.432 55.048,47.432 50.059,0 			"/>
		</g>
	</g>
</g>
<g>
</g>
<g>
</g>
<g>
</g>
<g>
</g>
<g>
</g>
<g>
</g>
<g>
</g>
<g>
</g>
<g>
</g>
<g>
</g>
<g>
</g>
<g>
</g>
<g>
</g>
<g>
</g>
<g>
</g>
</svg>
