<?xml version="1.0" encoding="iso-8859-1"?>
<!-- Generator: Adobe Illustrator 19.0.0, SVG Export Plug-In . SVG Version: 6.00 Build 0)  -->
<svg version="1.1" id="Layer_1" xmlns="http://www.w3.org/2000/svg" xmlns:xlink="http://www.w3.org/1999/xlink" x="0px" y="0px"
	 viewBox="0 0 155.883 155.883" style="enable-background:new 0 0 155.883 155.883;" xml:space="preserve">
<g>
	<g>
		<g>
			<g>
				<path style="fill:#56B300;" d="M98.449,33.23c0,0,13.767-14.405,1.585-29.617C100.034,3.613,86.553,17.616,98.449,33.23z"/>
			</g>
			<g>
				<path style="fill:#56B300;" d="M97.763,32.746c0,0,8.932-17.81,27.356-11.457C125.12,21.289,116.47,38.695,97.763,32.746z"/>
			</g>
			<g>
				<path style="fill:#56B300;" d="M99.784,30.957c0,0-1.516-19.866,17.545-23.912C117.329,7.045,118.882,26.42,99.784,30.957z"/>
			</g>
		</g>
		<g>
			<path style="fill:#FF7500;" d="M72.505,80.742c-6.53,7.965-16.13,1.199-11.471-8.08L82.95,26.516
				c4.896-6.952,14.797-9.031,21.75-4.133l0.459,0.322c6.95,4.898,8.323,14.92,3.425,21.871L72.505,80.742z"/>
		</g>
		<path style="fill:#FF4F0C;" d="M82.753,26.928L61.035,72.662c-4.659,9.279,4.941,16.045,11.471,8.08l31.771-31.848
			C96.244,42.365,88.717,35.176,82.753,26.928z"/>
	</g>
	<g>
		<polygon style="fill:#ABD9D5;" points="95.982,155.883 39.234,155.883 30.763,47.883 104.452,47.883 		"/>
	</g>
	<g>
		<polygon style="fill:#CDE8E6;" points="65.611,155.883 39.234,155.883 30.763,47.883 65.611,47.883 		"/>
	</g>
	<g>
		<polygon style="fill:#DDF0EE;" points="90.053,141.883 45.163,141.883 36.693,47.883 98.523,47.883 		"/>
	</g>
	<g>
		<polygon style="fill:#FF7500;" points="38.599,68.607 45.163,141.449 90.053,141.449 96.616,68.607 		"/>
	</g>
	<g>
		<polygon style="fill:#FF4F0C;" points="68.031,68.607 38.599,68.607 45.163,141.449 68.031,141.449 		"/>
	</g>
	<path style="fill:#FFFFFF;" d="M85.47,127.346c-0.215,2.33-2.277,4.043-4.607,3.828l0,0c-2.329-0.215-4.042-2.277-3.827-4.605
		l4.047-43.857c0.215-2.33,2.278-4.045,4.606-3.828l0,0c2.329,0.215,4.043,2.275,3.827,4.605L85.47,127.346z"/>
	<g>
		<g>
			<polygon style="fill:#F62D8D;" points="38.989,0 43.977,47.432 52.86,47.432 47.871,0 			"/>
		</g>
	</g>
</g>
<g>
</g>
<g>
</g>
<g>
</g>
<g>
</g>
<g>
</g>
<g>
</g>
<g>
</g>
<g>
</g>
<g>
</g>
<g>
</g>
<g>
</g>
<g>
</g>
<g>
</g>
<g>
</g>
<g>
</g>
</svg>
