<?xml version="1.0" encoding="iso-8859-1"?>
<!-- Generator: Adobe Illustrator 19.0.0, SVG Export Plug-In . SVG Version: 6.00 Build 0)  -->
<svg version="1.1" id="Layer_1" xmlns="http://www.w3.org/2000/svg" xmlns:xlink="http://www.w3.org/1999/xlink" x="0px" y="0px"
	 viewBox="0 0 155.883 155.883" style="enable-background:new 0 0 155.883 155.883;" xml:space="preserve">
<g>
	<g>
		<path style="fill:#573A28;" d="M78.968,60.759l-3.998-3.002c0.182-0.242,18.186-24.458,17.309-42.174l4.994-0.248
			C98.239,34.861,79.755,59.711,78.968,60.759z"/>
	</g>
	<g>
		<path style="fill:#573A28;" d="M114.978,58.977c-0.887-0.966-21.733-23.868-22.699-43.394l4.994-0.248
			c0.877,17.717,21.183,40.036,21.388,40.26L114.978,58.977z"/>
	</g>
	<g>
		<path style="fill:#FF4F0C;" d="M120.763,49.977c-6.636,1.342-5.527,7.377-5.527,7.377l0.365,0.334l-0.202-0.412
			c0,0-4.426-4.416-9.561-0.004c-5.135,4.412-0.083,13.99,7.916,16.738c6.724,2.307,12.979-0.75,15.289-7.475
			C131.791,58.535,127.401,48.637,120.763,49.977z"/>
	</g>
	<g>
		<path style="fill:#FF4F0C;" d="M72.028,51.445c6.7-0.975,7.69,5.082,7.69,5.082l-0.23,0.438l0.052-0.457
			c0,0,2.679-5.648,8.999-3.227c6.323,2.422,4.796,13.143-1.809,18.426c-5.552,4.441-12.473,3.672-16.913-1.881
			C64.533,63.221,65.329,52.42,72.028,51.445z"/>
	</g>
	<polygon style="fill:#ABD9D5;" points="91.226,155.883 34.478,155.883 26.007,47.883 99.696,47.883 	"/>
	<polygon style="fill:#CDE8E6;" points="60.681,155.883 34.478,155.883 26.007,47.883 60.681,47.883 	"/>
	<polygon style="fill:#DDF0EE;" points="85.297,141.883 40.407,141.883 31.937,47.883 93.767,47.883 	"/>
	<polygon style="fill:#FF4F0C;" points="33.843,68.607 40.407,141.449 85.297,141.449 91.86,68.607 	"/>
	<polygon style="fill:#D90F06;" points="63.275,68.607 33.843,68.607 40.407,141.449 63.275,141.449 	"/>
	<path style="fill:#FFFFFF;" d="M80.714,127.346c-0.215,2.33-2.277,4.043-4.606,3.828l0,0c-2.329-0.215-4.042-2.277-3.827-4.605
		l4.047-43.857c0.215-2.33,2.278-4.045,4.606-3.828l0,0c2.329,0.215,4.043,2.275,3.827,4.605L80.714,127.346z"/>
	<g>
		<polygon style="fill:#F62D8D;" points="34.233,0 39.221,47.432 48.104,47.432 43.115,0 		"/>
	</g>
</g>
<g>
</g>
<g>
</g>
<g>
</g>
<g>
</g>
<g>
</g>
<g>
</g>
<g>
</g>
<g>
</g>
<g>
</g>
<g>
</g>
<g>
</g>
<g>
</g>
<g>
</g>
<g>
</g>
<g>
</g>
</svg>
