<?xml version="1.0" encoding="iso-8859-1"?>
<!-- Generator: Adobe Illustrator 19.0.0, SVG Export Plug-In . SVG Version: 6.00 Build 0)  -->
<svg version="1.1" id="Layer_1" xmlns="http://www.w3.org/2000/svg" xmlns:xlink="http://www.w3.org/1999/xlink" x="0px" y="0px"
	 viewBox="0 0 155.883 155.883" style="enable-background:new 0 0 155.883 155.883;" xml:space="preserve">
<g>
	<g>
		<path style="fill:#A456AB;" d="M123.018,66.5c0-4.027-1.644-7.669-4.295-10.297c3.214-2.468,5.295-6.338,5.295-10.703
			c0-7.456-6.044-13.5-13.5-13.5c-3.972,0-7.532,1.726-10.002,4.456C98.126,34.314,94.98,33,91.518,33
			c-7.456,0-13.5,6.044-13.5,13.5S84.062,60,91.518,60c1.569,0,3.069-0.281,4.47-0.773c-1.245,2.14-1.97,4.619-1.97,7.273
			c0,6.405,4.157,11.83,9.917,13.749c-1.803,1.886-2.917,4.437-2.917,7.251c0,5.8,4.701,10.5,10.5,10.5s10.5-4.7,10.5-10.5
			c0-3.884-2.114-7.267-5.249-9.083C120.542,75.799,123.018,71.441,123.018,66.5z"/>
	</g>
	<path style="fill:#7B4180;" d="M103.878,52.5c-0.533-0.645-1.017-1.327-1.428-2.054c-3.871-4.012-4.037-11.084-0.491-15.353
		c-0.513,0.42-0.999,0.871-1.443,1.362C98.126,34.314,94.98,33,91.518,33c-7.456,0-13.5,6.044-13.5,13.5c0,2.158,0.52,4.191,1.42,6
		H103.878z"/>
	<g>
		<polygon style="fill:#ABD9D5;" points="97.084,155.883 40.335,155.883 31.865,47.883 105.553,47.883 		"/>
	</g>
	<g>
		<polygon style="fill:#CDE8E6;" points="66.886,155.883 40.335,155.883 31.865,47.883 66.886,47.883 		"/>
	</g>
	<g>
		<polygon style="fill:#DDF0EE;" points="91.155,141.883 46.264,141.883 37.794,47.883 99.625,47.883 		"/>
	</g>
	<g>
		<polygon style="fill:#A456AB;" points="39.701,68.606 46.264,141.449 91.155,141.449 97.717,68.606 		"/>
	</g>
	<g>
		<polygon style="fill:#7B4180;" points="69.132,68.606 39.701,68.606 46.264,141.449 69.132,141.449 		"/>
	</g>
	<path style="fill:#FFFFFF;" d="M86.572,127.346c-0.215,2.329-2.277,4.044-4.606,3.828l0,0c-2.329-0.215-4.042-2.277-3.827-4.606
		l4.047-43.857c0.215-2.329,2.278-4.043,4.607-3.828l0,0c2.329,0.215,4.043,2.277,3.827,4.606L86.572,127.346z"/>
	<g>
		<g>
			<polygon style="fill:#F62D8D;" points="40.09,0 45.079,47.433 53.961,47.433 48.972,0 			"/>
		</g>
	</g>
</g>
<g>
</g>
<g>
</g>
<g>
</g>
<g>
</g>
<g>
</g>
<g>
</g>
<g>
</g>
<g>
</g>
<g>
</g>
<g>
</g>
<g>
</g>
<g>
</g>
<g>
</g>
<g>
</g>
<g>
</g>
</svg>
