<?xml version="1.0" encoding="UTF-8" standalone="no"?>
<!-- Created with Inkscape (http://www.inkscape.org/) -->
<svg
   xmlns:dc="http://purl.org/dc/elements/1.1/"
   xmlns:cc="http://web.resource.org/cc/"
   xmlns:rdf="http://www.w3.org/1999/02/22-rdf-syntax-ns#"
   xmlns:svg="http://www.w3.org/2000/svg"
   xmlns="http://www.w3.org/2000/svg"
   xmlns:sodipodi="http://inkscape.sourceforge.net/DTD/sodipodi-0.dtd"
   xmlns:inkscape="http://www.inkscape.org/namespaces/inkscape"
   width="128.00000px"
   height="128.00000px"
   id="svg2"
   sodipodi:version="0.32"
   inkscape:version="0.42"
   sodipodi:docbase="/home/nicu/Desktop"
   sodipodi:docname="silh_bw.svg">
  <defs
     id="defs4" />
  <sodipodi:namedview
     id="base"
     pagecolor="#ffffff"
     bordercolor="#666666"
     borderopacity="1.0"
     inkscape:pageopacity="0.0"
     inkscape:pageshadow="2"
     inkscape:zoom="1.0000000"
     inkscape:cx="78.805941"
     inkscape:cy="35.863142"
     inkscape:document-units="px"
     inkscape:current-layer="layer1"
     inkscape:window-width="1152"
     inkscape:window-height="791"
     inkscape:window-x="0"
     inkscape:window-y="24" />
  
  <g
     inkscape:label="Layer 1"
     inkscape:groupmode="layer"
     id="layer1">
    <path
       style="fill:#000000"
       d="M 53.685682,125.92815 C 50.946132,124.54133 57.422853,121.63125 54.036058,121.84004 C 52.560505,122.05539 47.731155,121.89052 50.171528,119.62410 C 51.724670,118.23239 54.892400,118.29440 54.207602,115.31622 C 53.915864,111.82441 54.078515,108.25943 52.969849,104.88257 C 52.352532,102.59147 51.694474,100.29953 50.671467,98.159920 C 49.667879,94.678299 48.855659,91.145138 47.908665,87.650233 C 47.812152,85.882776 46.235211,85.994604 45.110000,85.549448 C 45.497828,83.371302 45.488021,81.113583 45.603592,78.886611 C 46.202949,76.099196 47.590061,73.514328 48.067268,70.678973 C 48.999661,68.340573 48.632813,65.952276 47.583073,63.727119 C 46.776637,61.992040 48.810044,59.821666 49.153712,57.931133 C 49.604516,56.806488 50.481420,55.799775 50.309685,54.518265 C 50.491101,50.787081 50.729072,47.045772 50.459127,43.318715 C 51.482614,41.062949 50.871720,38.470418 50.758261,36.083959 C 49.943215,33.951459 48.958721,31.670568 50.137401,29.395896 C 50.470010,28.291451 51.556732,27.443591 51.677492,26.307153 C 51.718803,24.211572 51.530488,22.063624 52.281494,20.064434 C 52.496532,17.826910 53.259351,15.413818 52.211988,13.285042 C 51.817239,10.956153 52.240572,8.1678773 53.965115,6.4202821 C 55.021181,4.5103198 56.380940,2.4240672 58.790794,2.2124844 C 61.106075,1.5619400 63.636197,2.6030930 64.920680,4.6176302 C 66.762875,7.0859265 67.438176,10.130279 67.974443,13.095510 C 68.910164,15.091747 68.224043,17.951661 70.176901,19.331884 C 71.096333,19.781051 69.620625,20.083391 71.250173,20.164559 C 73.680384,21.266592 71.757597,24.136444 72.892227,26.005111 C 73.753692,28.513941 75.724349,30.444324 76.574373,32.972422 C 77.661727,34.895308 77.816402,37.160121 76.405002,38.967479 C 74.206928,42.359471 72.215765,45.898589 69.625487,49.023879 C 68.430834,50.787731 67.128930,52.514941 67.211835,54.739536 C 66.133206,57.248100 65.378415,59.906631 64.084435,62.317286 C 62.681242,64.297761 61.290107,66.502290 61.440347,69.032472 C 61.285822,74.421499 61.147780,79.831912 61.516191,85.213928 C 61.985007,88.779745 62.660145,92.367223 62.134767,95.973001 C 61.930970,100.35082 61.613872,104.79279 62.276313,109.14348 C 62.749747,111.10361 65.429848,113.24284 63.703860,115.27315 C 62.204494,116.73706 62.871819,118.99147 62.821068,120.67445 C 61.631593,121.37804 61.453865,117.62723 61.721308,120.42285 C 62.740711,122.56302 61.549717,124.81511 59.347407,125.46436 C 57.555776,126.08806 55.559064,126.04849 53.685682,125.92815 z M 66.345727,47.189486 C 67.276948,45.119528 68.374186,43.123588 69.009025,40.926698 C 69.531420,38.817472 71.685579,36.611164 70.288778,34.440547 C 69.903794,33.799324 70.173103,35.384263 69.181526,35.141896 C 66.963741,35.849803 65.735209,37.553706 65.020030,39.820478 C 64.146347,41.815784 64.524322,43.800781 64.968564,45.874542 C 64.987049,46.930368 65.890494,49.705563 66.345728,47.189489 L 66.345727,47.189486 z "
       id="path2947" />
  </g>

  <metadata>
    <rdf:RDF 
     xmlns="http://web.resource.org/cc/"
     xmlns:dc="http://purl.org/dc/elements/1.1/"
     xmlns:rdf="http://www.w3.org/1999/02/22-rdf-syntax-ns#">
      <Work rdf:about="">
        <dc:title>woman silhouette</dc:title>
        <dc:description></dc:description>
        <dc:subject>
          <rdf:Bag>
            <rdf:li>people</rdf:li>
            <rdf:li> woman</rdf:li>
            <rdf:li> silhouette</rdf:li>
          </rdf:Bag>
        </dc:subject>
        <dc:publisher>
           <Agent>
             <dc:title></dc:title>
           </Agent>
         </dc:publisher>
         <dc:creator>
           <Agent>
             <dc:title>Nicu Buculei</dc:title>
           </Agent>
        </dc:creator>
         <dc:rights>
           <Agent>
             <dc:title>Nicu Buculei</dc:title>
           </Agent>
        </dc:rights>
        <dc:date></dc:date>
        <dc:format>image/svg+xml</dc:format>
        <dc:type rdf:resource="http://purl.org/dc/dcmitype/StillImage" />
        <license rdf:resource="http://web.resource.org/cc/PublicDomain" />
        <dc:language>en</dc:language>
      </Work>

      <License rdf:about="http://web.resource.org/cc/PublicDomain">
         <permits rdf:resource="http://web.resource.org/cc/Reproduction" />
         <permits rdf:resource="http://web.resource.org/cc/Distribution" />
         <permits rdf:resource="http://web.resource.org/cc/DerivativeWorks" />
      </License>

    </rdf:RDF>
  </metadata>
</svg>
