<?xml version="1.0" encoding="iso-8859-1"?>
<!-- Generator: Adobe Illustrator 19.0.0, SVG Export Plug-In . SVG Version: 6.00 Build 0)  -->
<svg version="1.1" id="Layer_1" xmlns="http://www.w3.org/2000/svg" xmlns:xlink="http://www.w3.org/1999/xlink" x="0px" y="0px"
	 viewBox="0 0 155.883 155.883" style="enable-background:new 0 0 155.883 155.883;" xml:space="preserve">
<g>
	<g>
		<g>
			<circle style="fill:#9CC105;" cx="100.422" cy="49.126" r="24.492"/>
		</g>
		<g>
			<circle style="fill:#573A28;" cx="100.763" cy="48.786" r="17.66"/>
		</g>
		<g>
			<circle style="fill:#FFFFFF;" cx="100.762" cy="48.786" r="8.021"/>
		</g>
	</g>
	<g>
		<polygon style="fill:#ABD9D5;" points="96.187,155.883 39.439,155.883 30.969,47.883 104.657,47.883 		"/>
	</g>
	<g>
		<polygon style="fill:#CDE8E6;" points="65.643,155.883 39.439,155.883 30.969,47.883 65.643,47.883 		"/>
	</g>
	<g>
		<polygon style="fill:#DDF0EE;" points="90.259,141.883 45.368,141.883 36.898,47.883 98.728,47.883 		"/>
	</g>
	<g>
		<polygon style="fill:#9CC105;" points="38.805,68.606 45.368,141.449 90.259,141.449 96.821,68.606 		"/>
	</g>
	<g>
		<polygon style="fill:#56B300;" points="68.236,68.606 38.805,68.606 45.368,141.449 68.236,141.449 		"/>
	</g>
	<path style="fill:#FFFFFF;" d="M85.676,127.346c-0.215,2.329-2.277,4.044-4.606,3.828l0,0c-2.329-0.215-4.042-2.277-3.827-4.606
		l4.047-43.857c0.215-2.329,2.278-4.043,4.606-3.828l0,0c2.329,0.215,4.043,2.277,3.827,4.606L85.676,127.346z"/>
	<g>
		<g>
			<polygon style="fill:#F62D8D;" points="39.194,0 44.183,47.433 53.065,47.433 48.076,0 			"/>
		</g>
	</g>
</g>
<g>
</g>
<g>
</g>
<g>
</g>
<g>
</g>
<g>
</g>
<g>
</g>
<g>
</g>
<g>
</g>
<g>
</g>
<g>
</g>
<g>
</g>
<g>
</g>
<g>
</g>
<g>
</g>
<g>
</g>
</svg>
