<?xml version="1.0" encoding="iso-8859-1"?>
<!-- Generator: Adobe Illustrator 19.0.0, SVG Export Plug-In . SVG Version: 6.00 Build 0)  -->
<svg version="1.1" id="Layer_1" xmlns="http://www.w3.org/2000/svg" xmlns:xlink="http://www.w3.org/1999/xlink" x="0px" y="0px"
	 viewBox="0 0 155.883 155.883" style="enable-background:new 0 0 155.883 155.883;" xml:space="preserve">
<g>
	<g>
		<g>
			<path style="fill:#56B300;" d="M78.44,68.533h50.886c-0.486-27.695-23.074-50-50.886-50V68.533z"/>
		</g>
		<g>
			<path style="fill:#DDF0CC;" d="M78.44,68.533h42.402C120.356,45.525,101.565,27.02,78.44,27.02V68.533z"/>
		</g>
		<g>
			<path style="fill:#FF4F0C;" d="M78.44,68.533h36.818c-0.484-19.926-16.775-35.932-36.818-35.932V68.533z"/>
		</g>
		<g>
			<path style="fill:#573A28;" d="M78.441,68.533h4.514c-0.422-2.107-2.281-3.695-4.514-3.695V68.533z"/>
		</g>
		<g>
			<path style="fill:#573A28;" d="M96.635,68.533h9.205c-0.012-2.533-2.066-4.586-4.603-4.586
				C98.699,63.947,96.647,66,96.635,68.533z"/>
		</g>
		<g>
			<circle style="fill:#573A28;" cx="89.459" cy="49.043" r="4.605"/>
		</g>
	</g>
	<g>
		<polygon style="fill:#ABD9D5;" points="91.775,155.883 35.027,155.883 26.556,47.883 100.245,47.883 		"/>
	</g>
	<g>
		<polygon style="fill:#CDE8E6;" points="61.577,155.883 35.027,155.883 26.556,47.883 61.577,47.883 		"/>
	</g>
	<g>
		<polygon style="fill:#DDF0EE;" points="85.846,141.883 40.956,141.883 32.486,47.883 94.316,47.883 		"/>
	</g>
	<g>
		<polygon style="fill:#FF4F0C;" points="34.392,68.607 40.956,141.449 85.846,141.449 92.409,68.607 		"/>
	</g>
	<polygon style="fill:#D90F06;" points="63.824,68.607 34.392,68.607 40.956,141.449 63.824,141.449 	"/>
	<path style="fill:#FFFFFF;" d="M81.263,127.346c-0.215,2.33-2.278,4.043-4.606,3.828l0,0c-2.329-0.215-4.042-2.277-3.828-4.605
		l4.048-43.857c0.215-2.33,2.278-4.045,4.606-3.828l0,0c2.329,0.215,4.043,2.275,3.828,4.605L81.263,127.346z"/>
	<g>
		<g>
			<polygon style="fill:#F62D8D;" points="34.782,0 39.77,47.432 48.653,47.432 43.664,0 			"/>
		</g>
	</g>
</g>
<g>
</g>
<g>
</g>
<g>
</g>
<g>
</g>
<g>
</g>
<g>
</g>
<g>
</g>
<g>
</g>
<g>
</g>
<g>
</g>
<g>
</g>
<g>
</g>
<g>
</g>
<g>
</g>
<g>
</g>
</svg>
